<svg width="56" height="56" viewBox="0 0 56 56" fill="none" xmlns="http://www.w3.org/2000/svg">
<path d="M38.7544 2.15225C35.4432 0.772604 31.8009 0 27.9931 0C12.541 0 0 12.541 0 27.9931C0 32.4218 1.03474 36.6159 2.86967 40.341L3.25597 29.9384L10.2232 24.475L8.42966 48.0118C8.6642 48.2464 8.91254 48.4809 9.16088 48.7017L12.0857 23.0126L19.8532 16.9283L13.3274 51.8335C13.5068 51.9438 13.6999 52.0542 13.8793 52.1646L22.2538 15.052L31.2905 7.97438L18.1424 54.1927C18.2804 54.2478 18.4321 54.303 18.5701 54.3444L34.4499 5.5186L38.7544 2.15225Z" fill="url(#paint0_linear)"/>
<path d="M44.8387 5.62897L23.4265 55.6137C24.9165 55.862 26.4341 55.9862 27.9932 55.9862C43.459 55.9862 55.9863 43.4452 55.9863 27.9931C56.0001 18.8598 51.6128 10.7475 44.8387 5.62897Z" fill="url(#paint1_linear)"/>
<defs>
<linearGradient id="paint0_linear" x1="0" y1="27.1823" x2="38.7587" y2="27.1823" gradientUnits="userSpaceOnUse">
<stop offset="0.000460737" stop-color="#7255B7"/>
<stop offset="1" stop-color="#6774E5"/>
</linearGradient>
<linearGradient id="paint1_linear" x1="23.4322" y1="30.8163" x2="55.9971" y2="30.8163" gradientUnits="userSpaceOnUse">
<stop offset="0.000460737" stop-color="#7255B7"/>
<stop offset="1" stop-color="#6774E5"/>
</linearGradient>
</defs>
</svg>
